# xmcd CD database file
#
# Track frame offsets:
#	150
#	7621
#	46718
#	74283
#	80150
#	92293
#	104541
#	125915
#	139191
#	155133
#	164794
#	199901
#	208330
#	225815
#	251427
#	272147
#	297139
#
# Disc length: 4330 seconds
#
# Revision: 0
# Processed by: cddbd v1.5.2PL0 Copyright (c) Steve Scherf et al.
# Submitted via: CDex 1.51
#
DISCID=f210e811
DTITLE=Colin Towns and NDR Big Band - Lend Me Your Ears
DYEAR=2006
DGENRE=Jazz
TTITLE0=Sound Bites
TTITLE1=Tango Teaser
TTITLE2=Miss Demeanour
TTITLE3=Storyman
TTITLE4=Hemingway
TTITLE5=Creole Cat Call
TTITLE6=Bird of Prey
TTITLE7=Song of the Curlew
TTITLE8=Dancer With Bad Lipstick
TTITLE9=Quiet Thoughts
TTITLE10=Blue Period
TTITLE11=Quiet Visionary
TTITLE12=Franks Big Boogie
TTITLE13=Kiss For Eternity
TTITLE14=Blues For Another Time
TTITLE15=Lend Me Your Ears
TTITLE16=Ghost Train Throught the Chaos Theory
EXTD=YEAR: 2006
EXTT0=
EXTT1=
EXTT2=
EXTT3=
EXTT4=
EXTT5=
EXTT6=
EXTT7=
EXTT8=
EXTT9=
EXTT10=
EXTT11=
EXTT12=
EXTT13=
EXTT14=
EXTT15=
EXTT16=
PLAYORDER=
